<?xml version="1.0" encoding="UTF-8" standalone="no"?>
<!DOCTYPE svg PUBLIC "-//W3C//DTD SVG 1.1//EN" "http://www.w3.org/Graphics/SVG/1.1/DTD/svg11.dtd">
<svg width="100%" height="100%" viewBox="0 0 800 800" version="1.1" xmlns="http://www.w3.org/2000/svg" xmlns:xlink="http://www.w3.org/1999/xlink" xml:space="preserve" xmlns:serif="http://www.serif.com/" style="fill-rule:evenodd;clip-rule:evenodd;stroke-linecap:round;stroke-linejoin:round;stroke-miterlimit:1.5;">
    <g id="Artboard2" transform="matrix(1,0,0,1,-6,70)">
        <rect x="6" y="-70" width="800" height="800" style="fill:none;"/>
        <clipPath id="_clip1">
            <rect x="6" y="-70" width="800" height="800"/>
        </clipPath>
        <g clip-path="url(#_clip1)">
            <g id="blender_logo_no_socket" transform="matrix(1,0,0,0.835201,-5.71483,-58.230929)">
                <g transform="matrix(21.634434,0,0,25.903251,-5000.819181,9056.114258)">
                    <path d="M243.13,-333.715C243.236,-335.606 244.162,-337.272 245.559,-338.453C246.929,-339.613 248.773,-340.322 250.785,-340.322C252.795,-340.322 254.639,-339.613 256.01,-338.453C257.406,-337.272 258.332,-335.606 258.439,-333.717C258.545,-331.774 257.764,-329.969 256.394,-328.631C254.997,-327.27 253.01,-326.416 250.785,-326.416C248.56,-326.416 246.569,-327.27 245.173,-328.631C243.802,-329.969 243.023,-331.774 243.13,-333.715Z" style="fill:white;fill-rule:nonzero;"/>
                </g>
                <g transform="matrix(11.100759,0,0,13.291114,-2359.125401,4851.651505)">
                    <path d="M243.13,-333.715C243.236,-335.606 244.162,-337.272 245.559,-338.453C246.929,-339.613 248.773,-340.322 250.785,-340.322C252.795,-340.322 254.639,-339.613 256.01,-338.453C257.406,-337.272 258.332,-335.606 258.439,-333.717C258.545,-331.774 257.764,-329.969 256.394,-328.631C254.997,-327.27 253.01,-326.416 250.785,-326.416C248.56,-326.416 246.569,-327.27 245.173,-328.631C243.802,-329.969 243.023,-331.774 243.13,-333.715Z" style="fill:rgb(38,87,135);fill-rule:nonzero;"/>
                </g>
                <g transform="matrix(11.100759,0,0,13.291114,-2359.125401,4851.651505)">
                    <path d="M230.94,-329.894C230.953,-329.154 231.189,-327.716 231.543,-326.593C232.287,-324.216 233.549,-322.017 235.305,-320.079C237.107,-318.087 239.326,-316.487 241.889,-315.351C244.583,-314.158 247.502,-313.55 250.534,-313.555C253.561,-313.559 256.48,-314.179 259.174,-315.381C261.737,-316.528 263.954,-318.135 265.753,-320.128C267.508,-322.074 268.768,-324.277 269.514,-326.654C269.889,-327.855 270.126,-329.074 270.221,-330.297C270.314,-331.502 270.275,-332.709 270.104,-333.915C269.77,-336.265 268.957,-338.47 267.705,-340.48C266.56,-342.327 265.084,-343.944 263.329,-345.305L263.333,-345.308L245.622,-358.907C245.606,-358.919 245.593,-358.932 245.576,-358.943C244.414,-359.835 242.46,-359.832 241.182,-358.938C239.89,-358.034 239.742,-356.539 240.892,-355.596L240.887,-355.591L248.274,-349.584L225.759,-349.56L225.729,-349.56C223.868,-349.558 222.079,-348.337 221.725,-346.794C221.361,-345.222 222.625,-343.918 224.56,-343.911L224.557,-343.904L235.969,-343.926L215.605,-328.295C215.579,-328.276 215.551,-328.256 215.527,-328.237C213.606,-326.766 212.985,-324.32 214.195,-322.772C215.423,-321.198 218.034,-321.195 219.975,-322.763L231.089,-331.859C231.089,-331.859 230.927,-330.631 230.94,-329.894ZM259.499,-325.782C257.209,-323.449 254.003,-322.126 250.534,-322.119C247.06,-322.113 243.854,-323.424 241.564,-325.753C240.445,-326.888 239.623,-328.194 239.116,-329.585C238.619,-330.952 238.426,-332.403 238.554,-333.867C238.675,-335.298 239.101,-336.663 239.781,-337.898C240.449,-339.112 241.369,-340.209 242.505,-341.137C244.731,-342.951 247.565,-343.933 250.529,-343.937C253.496,-343.941 256.328,-342.968 258.556,-341.16C259.69,-340.236 260.609,-339.143 261.277,-337.931C261.96,-336.697 262.383,-335.337 262.509,-333.902C262.635,-332.44 262.442,-330.991 261.945,-329.623C261.437,-328.228 260.618,-326.922 259.499,-325.782Z" style="fill:rgb(234,118,0);fill-rule:nonzero;"/>
                </g>
            </g>
            <g id="bag" transform="matrix(1,0,0,1,-6,0)">
                <path d="M547.037,391.024C547.037,391.024 558.049,366.088 565.995,348.097C570.853,337.097 581.745,330 593.77,330C610.975,330 635.779,330 652.984,330C665.009,330 675.901,337.097 680.759,348.097C688.705,366.088 699.717,391.024 699.717,391.024" style="fill:none;stroke:rgb(195,84,0);stroke-width:20px;"/>
                <g transform="matrix(1,0,0,0.615468,-17.121293,253.791034)">
                    <path d="M812,446.565L812,604.108C812,634.976 796.599,660 777.6,660C708.191,660 552.098,660 482.689,660C463.691,660 448.29,634.976 448.29,604.108C448.29,540.869 448.29,446.565 448.29,446.565C448.29,446.565 559.881,502.792 608.203,527.14C622.452,534.319 637.705,534.322 651.955,527.147C700.305,502.803 812,446.565 812,446.565Z" style="fill:rgb(119,52,0);"/>
                </g>
                <g transform="matrix(1.094512,0,0,0.615468,-76.743716,107.991086)">
                    <path d="M780.57,429.809C797.929,429.809 812,454.833 812,485.702L812,631.647C812,648.456 805.771,663.253 796.703,667.99C763.608,685.275 685.432,726.106 649.226,745.017C636.811,751.501 623.61,751.503 611.195,745.023C574.965,726.114 496.71,685.271 463.591,667.986C454.52,663.252 448.29,648.452 448.29,631.642C448.29,595.398 448.29,531.832 448.29,485.702C448.29,454.833 462.361,429.809 479.719,429.809L780.57,429.809Z" style="fill:url(#_Linear2);"/>
                </g>
                <g transform="matrix(0.17113,0,0,0.09623,505.120851,471.816934)">
                    <path d="M761.065,429.809C789.196,429.809 812,470.363 812,520.389C812,544.309 812,569.711 812,592.198C812,632.393 797.105,667.78 775.418,679.106C735.189,700.118 672.544,732.837 644.559,747.454C635.191,752.347 625.23,752.349 615.862,747.459C587.858,732.843 525.144,700.112 484.881,679.098C463.19,667.777 448.29,632.385 448.29,592.184C448.29,569.701 448.29,544.304 448.29,520.389C448.29,470.363 471.094,429.809 499.224,429.809C568.516,429.809 691.773,429.809 761.065,429.809Z" style="fill:rgb(223,108,0);"/>
                </g>
            </g>
        </g>
    </g>
    <defs>
        <linearGradient id="_Linear2" x1="0" y1="0" x2="1" y2="0" gradientUnits="userSpaceOnUse" gradientTransform="matrix(0,98.268334,-55.258444,0,619.588019,444.201267)"><stop offset="0" style="stop-color:rgb(203,88,0);stop-opacity:1"/><stop offset="1" style="stop-color:rgb(170,73,0);stop-opacity:1"/></linearGradient>
    </defs>
</svg>
