<?xml version="1.0" encoding="UTF-8" standalone="no"?>
<!DOCTYPE svg PUBLIC "-//W3C//DTD SVG 1.1//EN" "http://www.w3.org/Graphics/SVG/1.1/DTD/svg11.dtd">
<svg width="100%" height="100%" viewBox="0 0 700 1100" version="1.1" xmlns="http://www.w3.org/2000/svg" xmlns:xlink="http://www.w3.org/1999/xlink" xml:space="preserve" xmlns:serif="http://www.serif.com/" style="fill-rule:evenodd;clip-rule:evenodd;stroke-linejoin:round;stroke-miterlimit:2;">
    <g transform="matrix(-100,0,0,100,41599.546039,-60100.058)">
        <path d="M410.494,601.994C410.22,601.994 409.994,602.22 409.994,602.494C409.994,602.63 410.049,602.759 410.146,602.854L413.793,606.5L410.146,610.146C410.048,610.241 409.993,610.371 409.993,610.507C409.993,610.781 410.219,611.007 410.493,611.007C410.629,611.007 410.759,610.952 410.854,610.854L414.854,606.854C415.047,606.66 415.047,606.34 414.854,606.146L410.854,602.146C410.759,602.049 410.63,601.994 410.494,601.994Z" style="fill:white;fill-rule:nonzero;"/>
    </g>
</svg>
