<?xml version="1.0" encoding="UTF-8" standalone="no"?>
<svg
   height="1800"
   viewBox="0 0 1600 1800"
   width="1600"
   version="1.1"
   id="svg3"
   sodipodi:docname="settings.svg"
   inkscape:version="1.4.2 (f4327f4, 2025-05-13)"
   xmlns:inkscape="http://www.inkscape.org/namespaces/inkscape"
   xmlns:sodipodi="http://sodipodi.sourceforge.net/DTD/sodipodi-0.dtd"
   xmlns="http://www.w3.org/2000/svg"
   xmlns:svg="http://www.w3.org/2000/svg">
  <defs
     id="defs3" />
  <sodipodi:namedview
     pagecolor="#303030"
     showgrid="true"
     id="namedview1"
     bordercolor="#000000"
     borderopacity="0.25"
     inkscape:showpageshadow="2"
     inkscape:pageopacity="0.0"
     inkscape:pagecheckerboard="0"
     inkscape:deskcolor="#d1d1d1"
     inkscape:zoom="0.67388889"
     inkscape:cx="566.85903"
     inkscape:cy="886.64468"
     inkscape:window-width="2560"
     inkscape:window-height="1494"
     inkscape:window-x="-11"
     inkscape:window-y="-11"
     inkscape:window-maximized="1"
     inkscape:current-layer="svg3">
    <inkscape:grid
       id="grid5"
       units="px"
       spacingx="100"
       spacingy="100"
       color="#4772b3"
       opacity="0.2"
       visible="true"
       originx="0"
       originy="0" />
  </sodipodi:namedview>
  <path
     d="m 798.5672,100.34777 a 88.675377,88.675377 0 0 0 -89.35988,90.05149 l 0.35466,237.59789 c -66.03173,12.82118 -127.50599,38.97248 -181.14215,75.85243 L 328.57437,304.69571 A 88.675377,88.675377 0 0 0 267.96195,278.0266 88.675377,88.675377 0 0 0 203.54041,430.07548 l 199.84546,199.15386 c -36.85159,53.36838 -63.19617,114.38512 -76.19823,180.10297 l -238.637079,0.70934 a 88.725896,88.725896 0 0 0 0.354667,177.33302 l 237.252102,-0.35466 c 12.00545,66.99819 37.04132,129.74399 73.77408,184.25969 l -196.38214,196.728 a 88.675377,88.675377 0 1 0 125.03397,125.0337 l 195.68878,-195.3428 c 54.68595,38.4706 117.42815,65.8101 185.29883,78.9682 l -0.35467,230.6712 a 88.726235,88.726235 0 1 0 177.33299,0.7094 l 0.35467,-231.0188 c 68.45056,-12.4133 132.08476,-38.7616 187.37716,-76.8899 l 192.2273,192.9187 a 88.676654,88.676654 0 1 0 125.3798,-125.0338 L 1199.6626,1174.759 c 38.0221,-55.3829 64.2815,-119.214 76.5441,-187.72303 h 231.7102 a 88.8403,88.8403 0 1 0 0,-177.6806 h -232.7494 c -13.2646,-67.12943 -40.9054,-129.04348 -78.97,-183.22048 l 195.6906,-196.03636 a 88.675377,88.675377 0 0 0 -61.9974,-152.39468 88.675377,88.675377 0 0 0 -63.3824,27.01492 L 1069.7785,501.10091 C 1015.6068,464.64656 953.4055,439.74369 886.90384,427.6744 L 886.1945,190.07651 a 88.675377,88.675377 0 0 0 -87.28152,-89.70568 88.675377,88.675377 0 0 1 -0.35464,0 z m -0.35467,584.98974 c 117.52574,0 213.00707,95.48319 213.00887,213.00889 0,117.5239 -95.48313,212.6596 -213.00887,212.6596 -117.52392,0 -212.65954,-95.1357 -212.65954,-212.6596 0,-117.52392 95.13562,-213.00712 212.65954,-213.00889 z"
     id="path2"
     inkscape:label="path2"
     style="fill:#ffffff;fill-opacity:1;stroke-width:177.333" />
</svg>
