<?xml version="1.0" encoding="UTF-8" standalone="no"?>
<!DOCTYPE svg PUBLIC "-//W3C//DTD SVG 1.1//EN" "http://www.w3.org/Graphics/SVG/1.1/DTD/svg11.dtd">
<svg width="100%" height="100%" viewBox="0 0 1100 700" version="1.1" xmlns="http://www.w3.org/2000/svg" xmlns:xlink="http://www.w3.org/1999/xlink" xml:space="preserve" xmlns:serif="http://www.serif.com/" style="fill-rule:evenodd;clip-rule:evenodd;stroke-linejoin:round;stroke-miterlimit:2;">
    <g transform="matrix(100,0,0,-100,-42699.474,60999.546039)">
        <path d="M428.49,603.994C428.49,603.994 428.489,603.994 428.488,603.994C428.214,603.994 427.988,604.22 427.988,604.494C427.988,604.63 428.043,604.759 428.141,604.854L432.141,608.854C432.335,609.047 432.654,609.047 432.848,608.854L436.848,604.854C436.946,604.759 437.001,604.629 437.001,604.493C437.001,604.219 436.775,603.993 436.501,603.993C436.365,603.993 436.235,604.048 436.141,604.146L432.494,607.793L428.848,604.146C428.754,604.05 428.625,603.995 428.49,603.994Z" style="fill:white;fill-rule:nonzero;"/>
    </g>
</svg>
